<svg width="171" height="172" viewBox="0 0 171 172" fill="none" xmlns="http://www.w3.org/2000/svg">
<g clip-path="url(#clip0_2213_14199)">
<rect y="22" width="150" height="150" rx="75" fill="url(#paint0_linear_2213_14199)"/>
<rect x="18.5" y="78.5" width="113" height="107" rx="7.5" fill="white" stroke="#284B6A"/>
<rect x="0.5" y="-0.5" width="97" height="23" rx="3.5" transform="matrix(1 0 0 -1 26 109)" fill="#E6EAEE" stroke="#284B6A"/>
<rect x="0.5" y="-0.5" width="97" height="23" rx="3.5" transform="matrix(1 0 0 -1 26 142)" fill="#8095A7" stroke="#284B6A"/>
<rect x="0.5" y="-0.5" width="97" height="23" rx="3.5" transform="matrix(1 0 0 -1 26 175)" fill="#E6EAEE" stroke="#284B6A"/>
<mask id="path-6-outside-1_2213_14199" maskUnits="userSpaceOnUse" x="66" y="38" width="18" height="29" fill="black">
<rect fill="white" x="66" y="38" width="18" height="29"/>
<path d="M76.3535 57.459H72.4336C72.4453 56.3691 72.5391 55.4551 72.7148 54.7168C72.8906 53.9668 73.1836 53.2871 73.5938 52.6777C74.0156 52.0684 74.5723 51.4238 75.2637 50.7441C75.8027 50.2285 76.2891 49.7422 76.7227 49.2852C77.1562 48.8164 77.502 48.3242 77.7598 47.8086C78.0176 47.2812 78.1465 46.6777 78.1465 45.998C78.1465 45.2598 78.0234 44.6328 77.7773 44.1172C77.5312 43.6016 77.168 43.209 76.6875 42.9395C76.2188 42.6699 75.6328 42.5352 74.9297 42.5352C74.3438 42.5352 73.793 42.6523 73.2773 42.8867C72.7617 43.1094 72.3457 43.4609 72.0293 43.9414C71.7129 44.4102 71.543 45.0312 71.5195 45.8047H67.2832C67.3066 44.3281 67.6582 43.0859 68.3379 42.0781C69.0176 41.0703 69.9316 40.3145 71.0801 39.8105C72.2285 39.3066 73.5117 39.0547 74.9297 39.0547C76.5 39.0547 77.8418 39.3242 78.9551 39.8633C80.0684 40.3906 80.918 41.1641 81.5039 42.1836C82.1016 43.1914 82.4004 44.4102 82.4004 45.8398C82.4004 46.8711 82.1953 47.8086 81.7852 48.6523C81.375 49.4844 80.8418 50.2637 80.1855 50.9902C79.5293 51.7051 78.8203 52.4199 78.0586 53.1348C77.4023 53.7324 76.957 54.3828 76.7227 55.0859C76.4883 55.7773 76.3652 56.5684 76.3535 57.459ZM72.082 62.9434C72.082 62.3105 72.2988 61.7773 72.7324 61.3438C73.166 60.8984 73.7578 60.6758 74.5078 60.6758C75.2578 60.6758 75.8496 60.8984 76.2832 61.3438C76.7168 61.7773 76.9336 62.3105 76.9336 62.9434C76.9336 63.5762 76.7168 64.1152 76.2832 64.5605C75.8496 64.9941 75.2578 65.2109 74.5078 65.2109C73.7578 65.2109 73.166 64.9941 72.7324 64.5605C72.2988 64.1152 72.082 63.5762 72.082 62.9434Z"/>
</mask>
<path d="M76.3535 57.459H72.4336C72.4453 56.3691 72.5391 55.4551 72.7148 54.7168C72.8906 53.9668 73.1836 53.2871 73.5938 52.6777C74.0156 52.0684 74.5723 51.4238 75.2637 50.7441C75.8027 50.2285 76.2891 49.7422 76.7227 49.2852C77.1562 48.8164 77.502 48.3242 77.7598 47.8086C78.0176 47.2812 78.1465 46.6777 78.1465 45.998C78.1465 45.2598 78.0234 44.6328 77.7773 44.1172C77.5312 43.6016 77.168 43.209 76.6875 42.9395C76.2188 42.6699 75.6328 42.5352 74.9297 42.5352C74.3438 42.5352 73.793 42.6523 73.2773 42.8867C72.7617 43.1094 72.3457 43.4609 72.0293 43.9414C71.7129 44.4102 71.543 45.0312 71.5195 45.8047H67.2832C67.3066 44.3281 67.6582 43.0859 68.3379 42.0781C69.0176 41.0703 69.9316 40.3145 71.0801 39.8105C72.2285 39.3066 73.5117 39.0547 74.9297 39.0547C76.5 39.0547 77.8418 39.3242 78.9551 39.8633C80.0684 40.3906 80.918 41.1641 81.5039 42.1836C82.1016 43.1914 82.4004 44.4102 82.4004 45.8398C82.4004 46.8711 82.1953 47.8086 81.7852 48.6523C81.375 49.4844 80.8418 50.2637 80.1855 50.9902C79.5293 51.7051 78.8203 52.4199 78.0586 53.1348C77.4023 53.7324 76.957 54.3828 76.7227 55.0859C76.4883 55.7773 76.3652 56.5684 76.3535 57.459ZM72.082 62.9434C72.082 62.3105 72.2988 61.7773 72.7324 61.3438C73.166 60.8984 73.7578 60.6758 74.5078 60.6758C75.2578 60.6758 75.8496 60.8984 76.2832 61.3438C76.7168 61.7773 76.9336 62.3105 76.9336 62.9434C76.9336 63.5762 76.7168 64.1152 76.2832 64.5605C75.8496 64.9941 75.2578 65.2109 74.5078 65.2109C73.7578 65.2109 73.166 64.9941 72.7324 64.5605C72.2988 64.1152 72.082 63.5762 72.082 62.9434Z" fill="url(#paint1_linear_2213_14199)"/>
<path d="M76.3535 57.459V58.259H77.1431L77.1534 57.4695L76.3535 57.459ZM72.4336 57.459L71.6336 57.4504L71.6249 58.259H72.4336V57.459ZM72.7148 54.7168L73.4931 54.9021L73.4937 54.8993L72.7148 54.7168ZM73.5938 52.6777L72.9359 52.2223L72.9301 52.231L73.5938 52.6777ZM75.2637 50.7441L74.7106 50.166L74.7028 50.1736L75.2637 50.7441ZM76.7227 49.2852L77.3031 49.8358L77.3099 49.8284L76.7227 49.2852ZM77.7598 47.8086L78.4753 48.1664L78.4785 48.16L77.7598 47.8086ZM76.6875 42.9395L76.2887 43.633L76.2961 43.6372L76.6875 42.9395ZM73.2773 42.8867L73.5945 43.6212L73.6015 43.6182L73.6084 43.615L73.2773 42.8867ZM72.0293 43.9414L72.6924 44.389L72.6974 44.3814L72.0293 43.9414ZM71.5195 45.8047V46.6047H72.2957L72.3192 45.8289L71.5195 45.8047ZM67.2832 45.8047L66.4833 45.792L66.4704 46.6047H67.2832V45.8047ZM78.9551 39.8633L78.6064 40.5833L78.6126 40.5863L78.9551 39.8633ZM81.5039 42.1836L80.8102 42.5823L80.8158 42.5917L81.5039 42.1836ZM81.7852 48.6523L82.5027 49.0061L82.5047 49.0021L81.7852 48.6523ZM80.1855 50.9902L80.7749 51.5313L80.7792 51.5265L80.1855 50.9902ZM78.0586 53.1348L78.5973 53.7263L78.606 53.7181L78.0586 53.1348ZM76.7227 55.0859L77.4803 55.3428L77.4816 55.3389L76.7227 55.0859ZM72.7324 61.3438L73.2982 61.9095L73.3056 61.9018L72.7324 61.3438ZM76.2832 61.3438L75.71 61.9019L75.7175 61.9094L76.2832 61.3438ZM76.2832 64.5605L76.8489 65.1263L76.8564 65.1186L76.2832 64.5605ZM72.7324 64.5605L72.1592 65.1187L72.1667 65.1262L72.7324 64.5605ZM76.3535 56.659H72.4336V58.259H76.3535V56.659ZM73.2335 57.4676C73.2449 56.4138 73.3356 55.5634 73.4931 54.9021L71.9366 54.5315C71.7425 55.3467 71.6457 56.3244 71.6336 57.4504L73.2335 57.4676ZM73.4937 54.8993C73.6485 54.239 73.9039 53.6496 74.2574 53.1244L72.9301 52.231C72.4632 52.9246 72.1327 53.6946 71.936 54.5342L73.4937 54.8993ZM74.2515 53.1331C74.6376 52.5754 75.1587 51.9692 75.8245 51.3146L74.7028 50.1736C73.9859 50.8785 73.3937 51.5613 72.936 52.2224L74.2515 53.1331ZM75.8167 51.3223C76.3634 50.7993 76.8591 50.3037 77.303 49.8358L76.1423 48.7345C75.719 49.1807 75.242 49.6578 74.7107 50.166L75.8167 51.3223ZM77.3099 49.8284C77.7894 49.3101 78.1803 48.7564 78.4753 48.1664L77.0442 47.4508C76.8236 47.8921 76.5231 48.3227 76.1354 48.7419L77.3099 49.8284ZM78.4785 48.16C78.7976 47.5072 78.9465 46.7803 78.9465 45.998H77.3465C77.3465 46.5752 77.2375 47.0553 77.0411 47.4572L78.4785 48.16ZM78.9465 45.998C78.9465 45.1741 78.8095 44.4225 78.4993 43.7726L77.0554 44.4618C77.2374 44.8431 77.3465 45.3454 77.3465 45.998H78.9465ZM78.4993 43.7726C78.1849 43.1139 77.7089 42.5952 77.0789 42.2417L76.2961 43.6372C76.627 43.8228 76.8776 44.0893 77.0554 44.4618L78.4993 43.7726ZM77.0863 42.2459C76.465 41.8887 75.7318 41.7352 74.9297 41.7352V43.3352C75.5338 43.3352 75.9725 43.4511 76.2887 43.633L77.0863 42.2459ZM74.9297 41.7352C74.2336 41.7352 73.5695 41.8751 72.9463 42.1584L73.6084 43.615C74.0164 43.4295 74.4539 43.3352 74.9297 43.3352V41.7352ZM72.9602 42.1523C72.2977 42.4383 71.7611 42.894 71.3612 43.5014L72.6974 44.3814C72.9303 44.0278 73.2257 43.7804 73.5945 43.6212L72.9602 42.1523ZM71.3662 43.4938C70.9394 44.1261 70.7463 44.9096 70.7199 45.7805L72.3192 45.8289C72.3396 45.1529 72.4864 44.6942 72.6924 44.389L71.3662 43.4938ZM71.5195 45.0047H67.2832V46.6047H71.5195V45.0047ZM68.0831 45.8174C68.1046 44.4623 68.4252 43.3794 69.0011 42.5254L67.6746 41.6308C66.8912 42.7925 66.5087 44.194 66.4833 45.792L68.0831 45.8174ZM69.0011 42.5254C69.5934 41.6473 70.3871 40.9882 71.4015 40.5431L70.7586 39.078C69.4762 39.6407 68.4418 40.4934 67.6746 41.6308L69.0011 42.5254ZM71.4015 40.5431C72.4362 40.0891 73.6079 39.8547 74.9297 39.8547V38.2547C73.4155 38.2547 72.0208 38.5241 70.7586 39.078L71.4015 40.5431ZM74.9297 39.8547C76.4108 39.8547 77.6271 40.1091 78.6064 40.5833L79.3037 39.1432C78.0565 38.5393 76.5892 38.2547 74.9297 38.2547V39.8547ZM78.6126 40.5863C79.586 41.0473 80.3096 41.711 80.8103 42.5822L82.1975 41.785C81.5263 40.6171 80.5508 39.7339 79.2975 39.1403L78.6126 40.5863ZM80.8158 42.5917C81.3256 43.4514 81.6004 44.5222 81.6004 45.8398H83.2004C83.2004 44.2981 82.8775 42.9314 82.192 41.7755L80.8158 42.5917ZM81.6004 45.8398C81.6004 46.7621 81.4178 47.5783 81.0657 48.3026L82.5047 49.0021C82.9729 48.0389 83.2004 46.9801 83.2004 45.8398H81.6004ZM81.0676 48.2986C80.6919 49.0608 80.2013 49.7792 79.5919 50.454L80.7792 51.5265C81.4823 50.7481 82.0581 49.9079 82.5027 49.0061L81.0676 48.2986ZM79.5962 50.4492C78.9544 51.1484 78.2595 51.8491 77.5111 52.5514L78.606 53.7181C79.3812 52.9907 80.1042 52.2618 80.7749 51.5313L79.5962 50.4492ZM77.5199 52.5433C76.7825 53.2149 76.2492 53.9766 75.9637 54.833L77.4816 55.3389C77.6649 54.789 78.0222 54.2499 78.5973 53.7262L77.5199 52.5433ZM75.965 54.8291C75.6986 55.6151 75.5662 56.4918 75.5536 57.4485L77.1534 57.4695C77.1643 56.6449 77.278 55.9396 77.4803 55.3428L75.965 54.8291ZM72.882 62.9434C72.882 62.5151 73.0198 62.1877 73.2981 61.9094L72.1667 60.7781C71.5778 61.367 71.282 62.106 71.282 62.9434H72.882ZM73.3056 61.9018C73.5582 61.6424 73.9258 61.4758 74.5078 61.4758V59.8758C73.5898 59.8758 72.7738 60.1544 72.1592 60.7857L73.3056 61.9018ZM74.5078 61.4758C75.0898 61.4758 75.4574 61.6424 75.71 61.9018L76.8564 60.7857C76.2418 60.1544 75.4258 59.8758 74.5078 59.8758V61.4758ZM75.7175 61.9094C75.9958 62.1877 76.1336 62.5151 76.1336 62.9434H77.7336C77.7336 62.106 77.4378 61.367 76.8489 60.7781L75.7175 61.9094ZM76.1336 62.9434C76.1336 63.3719 75.9953 63.7095 75.71 64.0025L76.8564 65.1186C77.4383 64.521 77.7336 63.7804 77.7336 62.9434H76.1336ZM75.7175 63.9949C75.4662 64.2462 75.096 64.4109 74.5078 64.4109V66.0109C75.4196 66.0109 76.2331 65.7421 76.8489 65.1262L75.7175 63.9949ZM74.5078 64.4109C73.9196 64.4109 73.5495 64.2462 73.2981 63.9949L72.1667 65.1262C72.7826 65.7421 73.596 66.0109 74.5078 66.0109V64.4109ZM73.3056 64.0025C73.0204 63.7095 72.882 63.3719 72.882 62.9434H71.282C71.282 63.7804 71.5773 64.521 72.1592 65.1186L73.3056 64.0025Z" fill="url(#paint2_linear_2213_14199)" mask="url(#path-6-outside-1_2213_14199)"/>
</g>
<path d="M138 20L140.161 25.8393L146 28L140.161 30.1607L138 36L135.839 30.1607L130 28L135.839 25.8393L138 20Z" fill="#E6EAEE"/>
<path d="M157.5 0L161.146 9.85378L171 13.5L161.146 17.1462L157.5 27L153.854 17.1462L144 13.5L153.854 9.85378L157.5 0Z" fill="#CCD5DC"/>
<defs>
<linearGradient id="paint0_linear_2213_14199" x1="75" y1="22" x2="75" y2="172" gradientUnits="userSpaceOnUse">
<stop stop-color="#F2F4F6"/>
<stop offset="1" stop-color="#D2D8DE"/>
</linearGradient>
<linearGradient id="paint1_linear_2213_14199" x1="75" y1="39" x2="75" y2="67" gradientUnits="userSpaceOnUse">
<stop stop-color="#8EA5B8"/>
<stop offset="1" stop-color="#022B50"/>
</linearGradient>
<linearGradient id="paint2_linear_2213_14199" x1="75" y1="37.6" x2="75" y2="66.5" gradientUnits="userSpaceOnUse">
<stop stop-color="#97ACBF"/>
<stop offset="1" stop-color="#022B50"/>
</linearGradient>
<clipPath id="clip0_2213_14199">
<rect y="22" width="150" height="150" rx="75" fill="white"/>
</clipPath>
</defs>
</svg>
