<svg width="65" height="69" viewBox="0 0 65 69" fill="none" xmlns="http://www.w3.org/2000/svg">
<path d="M26.0516 68C18.2499 68 10.4482 68 2.64445 68C1.34383 68 1.00177 67.6703 1.00177 66.4184C1.00177 62.1857 0.99779 57.951 1.00177 53.7183C1.01171 46.2125 6.88439 39.7055 14.4614 38.7616C16.1498 38.5517 17.8343 38.6714 19.5207 38.6478C19.9741 38.6419 20.0895 38.5418 20.1034 38.0866C20.1233 37.4057 19.9801 36.974 19.3278 36.554C16.818 34.9371 15.233 32.6176 14.4813 29.7723C14.352 29.2817 14.1492 29.2307 13.7335 29.2307C13.0932 29.2307 12.4528 29.2817 11.8104 29.1169C9.81774 28.6047 8.34212 26.9799 8.1691 25.0451C7.98614 22.9965 9.05805 21.1009 10.9473 20.3002C11.4604 20.0824 11.5638 19.8862 11.4743 19.3525C11.1363 17.3058 10.828 15.2512 10.5794 13.1908C9.93508 7.84745 13.7335 2.57865 19.0792 1.34633C21.3622 0.820428 23.6791 1.03236 25.978 1.09711C27.2568 1.1344 28.3426 2.39027 28.4122 3.67362C28.452 4.39771 28.7881 4.58021 29.4483 4.57825C31.278 4.56843 33.1136 4.45658 34.8974 5.07471C39.6485 6.72305 42.3949 11.5248 41.3448 16.409C41.1201 17.4569 40.9153 18.5106 40.6766 19.5565C40.5891 19.9372 40.7144 20.0981 41.0684 20.259C43.1924 21.2206 44.3259 23.3771 43.8407 25.4631C43.2958 27.8061 41.4801 29.2327 39.0379 29.2366C38.2226 29.2366 37.6896 29.6225 37.439 30.3944C36.5501 33.0964 34.8974 35.2256 32.4811 36.7758C32.1013 37.0191 31.801 38.1533 32.0198 38.5163C32.1351 38.7086 32.33 38.6262 32.4911 38.6282C33.6087 38.636 34.7264 38.6282 35.846 38.6321C43.4071 38.6537 50.0415 44.4876 50.9662 51.8836C51.1353 53.2297 51.0796 54.57 51.0876 55.9122C51.1055 59.4365 51.0955 62.9588 51.0935 66.4831C51.0935 67.637 50.7216 67.9961 49.5284 67.9961C41.7008 67.9961 33.8752 67.9961 26.0476 67.9961L26.0516 68Z" fill="black" stroke="#F4F8FF"/>
<path d="M3.41206 63.2943C3.40809 59.9211 3.25694 56.54 3.43195 53.1766C3.76208 46.8325 8.59863 41.8953 15.0043 41.0967C16.6151 40.8965 18.228 41.0555 19.8369 40.973C20.3201 40.9475 20.2605 41.3047 20.34 41.5362C21.0898 43.7007 22.5713 45.0605 24.8464 45.555C27.7877 46.1967 30.7748 44.5111 31.6976 41.65C31.8706 41.1124 32.0913 40.9573 32.6541 40.9691C34.9312 41.0123 37.2202 40.8475 39.4356 41.5676C40.9033 42.0445 42.2934 42.6567 43.4807 43.6555C44.304 44.6249 44.6361 45.8121 44.9424 46.9954C45.2308 48.11 45.37 49.2501 45.364 50.4098C45.3481 53.7378 45.364 57.064 45.3561 60.392C45.3521 62.578 44.3955 63.516 42.1721 63.5219C41.4522 63.5239 40.7303 63.5298 40.0104 63.518C39.6902 63.5121 39.3561 63.5376 39.0996 63.2864C38.8728 62.9038 38.9365 62.4799 38.9365 62.0698C38.9305 58.1884 38.9365 54.3069 38.9305 50.4255C38.9305 49.5012 38.8331 49.4227 37.9043 49.4404C37.1069 49.4561 37.0253 49.5326 37.0253 50.4255C37.0194 54.3305 37.0253 58.2374 37.0194 62.1424C37.0194 62.5506 37.087 62.9784 36.8105 63.3453C36.4804 63.571 36.1006 63.5376 35.7327 63.5376C29.2872 63.5415 22.8438 63.5415 16.3984 63.5376C16.0305 63.5376 15.6506 63.5729 15.3145 63.363C15.0103 63.0097 15.0838 62.578 15.0818 62.1718C15.0739 58.2394 15.0818 54.3069 15.0739 50.3764C15.0739 49.5287 14.9764 49.4482 14.1412 49.4424C13.2661 49.4365 13.1727 49.5169 13.1707 50.4098C13.1627 54.3167 13.1707 58.2256 13.1647 62.1326C13.1647 62.5408 13.2304 62.9685 12.9639 63.3394C12.7332 63.5141 12.4587 63.5317 12.1863 63.5337C9.5393 63.5474 6.89033 63.5435 4.24335 63.5337C3.94703 63.5337 3.64276 63.5298 3.41206 63.2962V63.2943Z" fill="#44729B"/>
<path d="M16.4858 23.5595C16.6012 22.025 16.3526 20.4807 16.633 18.952C16.7921 18.0867 17.1938 17.341 17.8143 16.7189C18.928 15.6024 20.0456 14.4898 21.1812 13.3948C22.0403 12.5667 22.9193 12.5785 23.7864 13.4183C24.9717 14.5682 26.1371 15.7358 27.3204 16.8897C28.615 18.1514 30.1602 18.277 31.5981 17.1879C32.0376 16.8543 32.3657 16.8543 32.7794 17.1742C33.5013 17.7315 34.2371 18.2711 34.9769 18.8049C35.4144 19.1208 35.5994 19.527 35.5954 20.0607C35.5835 22.4332 35.6213 24.8056 35.5835 27.1761C35.5079 31.9347 31.5026 35.9888 26.6362 36.2772C21.736 36.5677 17.3112 33.0296 16.633 28.3221C16.4043 26.7345 16.5952 25.149 16.4858 23.5635V23.5595Z" fill="#FAE1CA"/>
<path d="M22.1426 30.936H29.6936" stroke="black" stroke-width="2.26531" stroke-linecap="round"/>
<path d="M38.1786 19.7599C37.9559 18.3588 37.1524 17.411 36.0666 16.6339C35.4044 16.161 34.7521 15.6744 34.0938 15.1956C32.8349 14.2772 31.3892 14.2772 30.1959 15.2682C29.7127 15.6705 29.3984 15.5959 29.0007 15.1936C27.8552 14.0398 26.6918 12.9016 25.5264 11.7674C23.7246 10.0112 21.2248 10.0092 19.4231 11.7596C18.4327 12.7211 17.4701 13.7101 16.4678 14.6599C15.0081 16.0433 14.2047 17.7152 14.0853 19.8776C13.7174 18.8121 13.7154 17.8486 13.5484 16.9165C13.3316 15.7195 13.2521 14.499 13.0472 13.298C12.3194 9.03001 15.372 4.30282 20.3697 3.52574C22.0263 3.26868 23.6888 3.44529 25.3494 3.39623C25.7969 3.38249 26.0037 3.64348 26.0554 4.07911C26.2742 5.93545 27.3898 6.89895 29.2672 6.91857C30.6275 6.93231 31.9977 6.79691 33.3441 7.1148C37.403 8.07044 39.8412 11.8832 38.9821 15.9314C38.7116 17.2069 38.4471 18.4824 38.1806 19.7579L38.1786 19.7599Z" fill="#885C3B"/>
<path d="M15.3028 63.2963H36.7968C37.5844 62.9568 38.3719 62.9568 39.1594 63.2963C40.3507 63.2963 41.5399 63.308 42.7311 63.2963C44.1232 63.2845 45.1275 62.3112 45.1315 60.9435C45.1415 57.1346 45.1852 53.3238 45.1136 49.515C45.0778 47.5782 44.4574 45.7434 43.6082 43.9931C43.5565 43.8851 43.5246 43.7654 43.4829 43.6516C46.3665 45.7474 48.1265 48.5829 48.5203 52.0405C49.0195 56.4184 48.6277 60.8375 48.7172 65.237C48.7231 65.5666 48.5879 65.6746 48.2777 65.6491C48.1305 65.6373 47.9794 65.6491 47.8302 65.6491C33.2967 65.6491 18.7651 65.6451 4.2336 65.6628C3.56937 65.6628 3.29095 65.5235 3.37845 64.8327C3.44209 64.3265 3.40629 63.8084 3.41425 63.2943C6.59023 63.2943 9.76819 63.2943 12.9442 63.2963C13.7317 62.9568 14.5192 62.9568 15.3068 63.2963H15.3028Z" fill="#284B6A"/>
<path d="M22.4759 38.1548C23.5717 38.3412 24.5999 38.6238 25.6698 38.6395C26.8431 38.6552 27.9966 38.5531 29.1242 38.2254C29.502 38.1155 29.6691 38.1901 29.6333 38.6199C29.5756 39.2988 29.685 39.9817 29.502 40.6626C29.0586 42.3129 27.4775 43.4667 25.7951 43.3294C24.0271 43.1842 22.5893 41.7694 22.4819 40.0288C22.4441 39.4224 22.4759 38.8102 22.4759 38.1567V38.1548Z" fill="#F1B9A2"/>
<path d="M14.1213 24.5596C14.1213 25.1934 14.1114 25.8253 14.1253 26.4591C14.1332 26.7495 14.0795 26.9203 13.7275 26.8928C13.3596 26.8633 12.9818 26.9144 12.6178 26.8633C11.3868 26.6887 10.468 25.582 10.5456 24.4046C10.6231 23.2017 11.6294 22.248 12.8843 22.1891C13.7103 22.1512 14.1233 22.5273 14.1233 23.3175C14.1233 23.7315 14.1233 24.1456 14.1233 24.5596H14.1213Z" fill="#F1B9A2"/>
<path d="M37.9781 24.5068C37.9781 23.871 37.994 23.2332 37.9721 22.5994C37.9602 22.2796 38.0656 22.1559 38.3937 22.1854C38.8372 22.2246 39.2827 22.1422 39.7261 22.2639C40.8677 22.5798 41.6512 23.6198 41.5538 24.7148C41.4484 25.8922 40.45 26.8223 39.227 26.8851C38.3957 26.9283 37.98 26.5515 37.98 25.7548C37.98 25.3388 37.98 24.9228 37.98 24.5068H37.9781Z" fill="#F1B9A2"/>
<path d="M15.3024 63.2961C14.5149 63.2961 13.7273 63.2961 12.9398 63.2961C12.9358 58.7769 12.9358 54.2558 12.9199 49.7366C12.9199 49.3323 13.0174 49.2009 13.4509 49.193C15.3143 49.1557 15.3143 49.14 15.3143 50.9826C15.3104 55.0878 15.3064 59.191 15.3024 63.2961Z" fill="#010101"/>
<path d="M39.1569 63.2961C38.3694 63.2961 37.5818 63.2961 36.7943 63.2961C36.7903 58.7769 36.7903 54.2558 36.7744 49.7366C36.7744 49.3323 36.8719 49.2009 37.3054 49.193C39.1688 49.1557 39.1688 49.14 39.1688 50.9826C39.1648 55.0878 39.1609 59.191 39.1569 63.2961Z" fill="#010101"/>
<path d="M21.215 23.3633C20.462 23.3633 20.0854 22.9996 20.0854 22.2722C20.0854 21.4337 20.5044 21.0144 21.3423 21.0144C22.0954 21.0144 22.4719 21.3781 22.4719 22.1054C22.4719 22.944 22.053 23.3633 21.215 23.3633Z" fill="#010101"/>
<path d="M30.7804 23.3633C30.0114 23.3633 29.627 22.9833 29.627 22.2232C29.627 21.4173 30.038 21.0144 30.86 21.0144C31.6289 21.0144 32.0134 21.3944 32.0134 22.1545C32.0134 22.9604 31.6031 23.3633 30.7824 23.3633H30.7804Z" fill="#010101"/>
<path d="M55.3169 6.14648C58.8829 6.34337 62.3396 8.10997 64.219 12.1793C66.1347 16.3284 64.4117 21.1786 60.2917 23.6596C59.1215 24.3646 57.8636 24.8435 56.5087 25.0697C56.3146 25.1016 56.1393 25.1442 56.0207 25.3583C54.9462 27.2899 53.2704 28.4273 51.1106 28.9128C50.7021 29.0046 50.299 29.1164 49.8919 29.2095C49.5413 29.2893 49.2164 29.2387 48.9778 28.9487C48.758 28.68 48.7446 28.3847 48.878 28.0641C49.3162 27.0105 49.7152 25.9437 49.9822 24.8329C50.0604 24.5083 50.0011 24.3487 49.664 24.201C46.028 22.598 43.7037 18.9597 43.9734 15.054C44.1945 11.8387 45.8999 9.43626 48.6421 7.74548C50.4487 6.6307 52.3307 6.14648 55.3183 6.14781L55.3169 6.14648Z" fill="#010101"/>
<path d="M50.9544 27.2843C51.3089 26.2081 51.5934 25.2264 51.7565 24.2127C51.8577 23.5768 51.7201 23.2829 51.1081 23.07C49.5617 22.5326 48.2728 21.6413 47.2752 20.3616C44.5532 16.8736 45.1693 12.332 48.7191 9.63422C52.1138 7.05349 57.1021 7.12 60.4024 9.78986C64.6249 13.206 64.2326 19.2574 59.5989 22.1867C58.4084 22.9396 57.1115 23.4039 55.708 23.5649C55.247 23.6181 54.9531 23.8296 54.7549 24.254C54.0134 25.8343 52.769 26.8214 50.9571 27.2857L50.9544 27.2843Z" fill="#FFD662"/>
<path d="M55.0264 18.0127H53.3926C53.3971 17.598 53.4313 17.2425 53.4951 16.9463C53.5635 16.6501 53.6751 16.3835 53.8301 16.1465C53.985 15.9049 54.1947 15.6589 54.459 15.4082C54.6686 15.2122 54.8555 15.0277 55.0195 14.8545C55.1882 14.6768 55.3203 14.4922 55.416 14.3008C55.5117 14.1048 55.5596 13.8838 55.5596 13.6377C55.5596 13.3597 55.514 13.1273 55.4229 12.9404C55.3363 12.7536 55.2064 12.6123 55.0332 12.5166C54.8646 12.4163 54.6527 12.3662 54.3975 12.3662C54.1878 12.3662 53.9896 12.4095 53.8027 12.4961C53.6159 12.5827 53.4655 12.7171 53.3516 12.8994C53.2376 13.0771 53.1761 13.3096 53.167 13.5967H51.3555C51.3691 12.9997 51.5104 12.5029 51.7793 12.1064C52.0482 11.7054 52.4105 11.4069 52.8662 11.2109C53.3219 11.0104 53.8324 10.9102 54.3975 10.9102C55.0218 10.9102 55.555 11.015 55.9971 11.2246C56.4437 11.4297 56.7832 11.7305 57.0156 12.127C57.2526 12.5234 57.3711 13.002 57.3711 13.5625C57.3711 13.9635 57.2936 14.3236 57.1387 14.6426C56.9837 14.957 56.7786 15.251 56.5234 15.5244C56.2682 15.7979 55.9925 16.0736 55.6963 16.3516C55.4365 16.584 55.2611 16.8324 55.1699 17.0967C55.0788 17.361 55.0309 17.6663 55.0264 18.0127ZM53.2217 20.1387C53.2217 19.8652 53.3128 19.6374 53.4951 19.4551C53.682 19.2728 53.9326 19.1816 54.2471 19.1816C54.5615 19.1816 54.8099 19.2728 54.9922 19.4551C55.179 19.6374 55.2725 19.8652 55.2725 20.1387C55.2725 20.403 55.179 20.6263 54.9922 20.8086C54.8099 20.9909 54.5615 21.082 54.2471 21.082C53.9326 21.082 53.682 20.9909 53.4951 20.8086C53.3128 20.6263 53.2217 20.403 53.2217 20.1387Z" fill="black"/>
</svg>
